<svg width="24" height="24" viewBox="0 0 24 24" fill="none" xmlns="http://www.w3.org/2000/svg">
<path d="M18 21L21 18L20.3 17.3L18.5 19.1V15H17.5V19.1L15.7 17.3L15 18L18 21ZM10 6H14V4H10V6ZM18 23C16.6167 23 15.4373 22.5123 14.462 21.537C13.4867 20.5617 12.9993 19.3827 13 18C13 16.6167 13.4877 15.4373 14.463 14.462C15.4383 13.4867 16.6173 12.9993 18 13C19.3833 13 20.5627 13.4877 21.538 14.463C22.5133 15.4383 23.0007 16.6173 23 18C23 19.3833 22.5123 20.5627 21.537 21.538C20.5617 22.5133 19.3827 23.0007 18 23ZM2 21V6H8V2H16V6H22V12.275C21.4167 11.8583 20.7833 11.5417 20.1 11.325C19.4167 11.1083 18.7167 11 18 11C16.0667 11 14.4167 11.6833 13.05 13.05C11.6833 14.4167 11 16.0667 11 18C11 18.5167 11.0543 19.0293 11.163 19.538C11.2717 20.0467 11.4423 20.534 11.675 21H2Z" fill="black"/>
</svg>
